<?xml version="1.0" encoding="utf-8"?><svg xmlns="http://www.w3.org/2000/svg" xmlns:xlink="http://www.w3.org/1999/xlink"><symbol viewBox="0 0 24 22" id="cart" xmlns="http://www.w3.org/2000/svg"><path d="M24 4.6l-2.7 11c-.1.3-.3.5-.7.5H7.9c-.3 0-.6-.2-.7-.5l-2.7-11-.8-3.1h-3c-.4 0-.7-.4-.7-.8S.3 0 .7 0h3.6c.3 0 .6.2.7.5l.8 3.1h17.6c.2 0 .4.1.5.3s.1.5.1.7zm-6.4 10H20l.5-2.2h-3v2.2zm0-3.6H21l.5-2.2h-3.9V11zm-6.7-5.9H6.1l.5 2.2h4.2c.1 0 .1-2.2.1-2.2zm0 3.7H7l.5 2.2h3.3c.1 0 .1-2.2.1-2.2zm0 3.6h-3l.5 2.2h2.4c.1 0 .1-2.2.1-2.2zm5.3-7.3h-4v2.2h4V5.1zm0 3.7h-4V11h4V8.8zm0 3.6h-4v2.2h4v-2.2zm1.4-7.3v2.2h4.2l.5-2.2h-4.7zM9.7 16.7c1.4 0 2.5 1.2 2.5 2.7S11.1 22 9.7 22s-2.5-1.2-2.5-2.7 1.1-2.6 2.5-2.6zm0 3.8c.6 0 1.1-.5 1.1-1.2s-.5-1.2-1.1-1.2-1.1.5-1.1 1.2.5 1.2 1.1 1.2zm9.1-3.8c1.4 0 2.5 1.2 2.5 2.7S20.2 22 18.8 22s-2.5-1.2-2.5-2.7 1.1-2.6 2.5-2.6zm0 3.8c.6 0 1.1-.5 1.1-1.2s-.5-1.2-1.1-1.2-1.1.5-1.1 1.2c-.1.7.4 1.2 1.1 1.2z" fill-rule="evenodd" clip-rule="evenodd"/></symbol><symbol viewBox="0 0 473 473" id="chat" xmlns="http://www.w3.org/2000/svg"><path d="M403.6 69.3C358.9 24.6 299.6 0 236.4 0S113.9 24.6 69.2 69.3c-86.4 86.4-92.4 224.7-14.9 318-7.6 15.3-19.8 33.1-37.9 42-8.7 4.3-13.6 13.6-12.1 23.2s8.9 17.1 18.5 18.6c4.5.7 10.9 1.4 18.7 1.4 20.9 0 51.7-4.9 83.2-27.6 35.1 18.9 73.5 28.1 111.6 28.1 61.2 0 121.8-23.7 167.4-69.3 44.7-44.7 69.3-104 69.3-167.2S448.3 114 403.6 69.3zm-19.1 315.3c-67.5 67.5-172 80.9-254.2 32.6-5.4-3.2-12.1-2.2-16.4 2.1-.4.2-.8.5-1.1.8-27.1 21-53.7 25.4-71.3 25.4h-.1c20.3-14.8 33.1-36.8 40.6-53.9 1.2-2.9 1.4-5.9.7-8.7-.3-2.7-1.4-5.4-3.3-7.6C6.2 292.6 10 166.6 88.2 88.4c81.7-81.7 214.6-81.7 296.2 0 81.8 81.7 81.8 214.5.1 296.2z"/><circle cx="236.4" cy="236.5" r="16.6"/><circle cx="322" cy="236.5" r="16.6"/><circle cx="150.8" cy="236.5" r="16.6"/></symbol><symbol viewBox="0 0 344.96 344.96" id="check" xmlns="http://www.w3.org/2000/svg"><g data-name="Слой 2"><path d="M321.85 86.24l-40-23.11-23.1-40H212.5L172.48 0l-40 23.11H86.24l-23.11 40-40 23.1v46.21L0 172.48l23.11 40v46.21l40 23.11 23.11 40h46.21l40 23.1 40-23.11h46.21l23.11-40 40-23.11V212.5l23.11-40-23.11-40V86.24zM156.91 243.07a16.79 16.79 0 01-23.34 0l-50.45-50.44a16.19 16.19 0 010-22.89l13.35-13.35a16.19 16.19 0 0122.89 0l25.87 25.87 80.34-80.35a16.19 16.19 0 0122.89 0l13.35 13.35a16.19 16.19 0 010 22.89z" data-name="Capa 1"/></g></symbol><symbol viewBox="0 0 792 792" id="chevron-left" xmlns="http://www.w3.org/2000/svg"><path d="M245.5 396L617.1 56.6c13-12.9 13-33.9 0-46.9s-34-12.9-47 0L174.6 370.9c-6.9 6.9-9.9 16.1-9.4 25.1-.5 9 2.5 18.2 9.4 25.1l395.5 361.2c13 12.9 34 12.9 47 0s13-33.9 0-46.9L245.5 396z"/></symbol><symbol viewBox="0 0 24 24" id="email" xmlns="http://www.w3.org/2000/svg"><path d="M22.7 3.5L12 12.3 1.3 3.5h21.4zM24 19c0 .5-.3 1-.9 1h-22c-.5 0-1-.3-1.1-.8V4.8l2.4 2 8.9 7.4c.3.4 1 .4 1.3 0l11-9.1.4-.3V19z"/></symbol><symbol viewBox="0 0 512 512" id="fire" xmlns="http://www.w3.org/2000/svg"><path d="M446.906 299.769c-5.865-76.359-41.417-124.21-72.781-166.436C345.083 94.241 320 60.483 320 10.685c0-4-2.24-7.656-5.792-9.489-3.563-1.844-7.844-1.542-11.083.812-47.104 33.706-86.406 90.515-100.135 144.719-9.531 37.737-10.792 80.161-10.969 108.18-43.5-9.291-53.354-74.359-53.458-75.068a10.72 10.72 0 00-5.552-7.916c-3.031-1.583-6.594-1.698-9.667-.177-2.281 1.104-55.99 28.394-59.115 137.355-.219 3.625-.229 7.261-.229 10.896 0 105.857 86.135 191.987 192 191.987.146.01.302.031.427 0h.135C362.167 511.681 448 425.667 448 319.997c0-5.323-1.094-20.228-1.094-20.228zM256 490.652c-35.292 0-64-30.581-64-68.172 0-1.281-.01-2.573.083-4.156.427-15.853 3.438-26.675 6.74-33.873 6.188 13.291 17.25 25.509 35.219 25.509a10.66 10.66 0 0010.667-10.666c0-15.186.313-32.706 4.094-48.518 3.365-14.02 11.406-28.936 21.594-40.893 4.531 15.52 13.365 28.081 21.99 40.341 12.344 17.54 25.104 35.675 27.344 66.6.135 1.833.271 3.677.271 5.656-.002 37.59-28.71 68.172-64.002 68.172z"/></symbol><symbol viewBox="0 0 457 457" id="garanty" xmlns="http://www.w3.org/2000/svg"><path d="M338 221.1c0-7.5-3.4-14.5-9.3-19.2 6.2-7.3 7.6-17.5 3.6-26.1-4-8.7-12.7-14.2-22.2-14.2h-54.5l2.2-6c3.5-9.3 5.3-19.2 5.3-29.2v-.9c0-7.6-3.1-14.8-8.5-20.1-5.4-5.3-12.8-8.1-20.4-7.9-15.3.8-27.3 13.6-27.2 28.9 0 7.3-10.2 24-18.5 35.1h-61.4c-3.9 0-7 3.1-7 7v140.1c0 3.9 3.1 7 7 7H299c8.8 0 17-4.8 21.3-12.5 4.3-7.7 4.2-17.1-.4-24.7 7-3.1 12.2-9.4 13.9-16.9 1.7-7.5-.2-15.4-5.2-21.3 6-4.6 9.4-11.6 9.4-19.1zm-203.8-45.5h50.9v126.1h-50.9V175.6zm179.3 56H310c-3.9 0-7 3.1-7 7s3.1 7 7 7c5.8 0 10.5 4.7 10.5 10.5s-4.7 10.5-10.5 10.5h-11c-3.9 0-7 3.1-7 7s3.1 7 7 7c5.8 0 10.5 4.7 10.5 10.5s-4.7 10.5-10.5 10.5H199V171c5.9-7.8 22-30.5 22-44.5-.2-7.8 5.8-14.4 13.6-14.9 3.8-.1 7.5 1.3 10.2 4 2.7 2.6 4.3 6.3 4.3 10.1v.9c0 8.3-1.5 16.5-4.4 24.2l-5.8 15.4c-.8 2.2-.5 4.6.8 6.5 1.3 1.9 3.5 3 5.8 3H310c5.8 0 10.5 4.7 10.5 10.5s-4.7 10.5-10.5 10.5c-3.9 0-7 3.1-7 7s3.1 7 7 7h3.4c5.8 0 10.5 4.7 10.5 10.5s-4.6 10.4-10.4 10.4zm-158.7 29.5c-10.1 0-18.2 8.2-18.2 18.2 0 10.1 8.1 18.2 18.2 18.2s18.2-8.1 18.2-18.2-8.2-18.2-18.2-18.2zm0 22.4c-2.3 0-4.2-1.9-4.2-4.2 0-2.3 1.9-4.2 4.2-4.2 2.3 0 4.2 1.9 4.2 4.2s-1.9 4.2-4.2 4.2zM446 211.8c6.5-10.1 8.6-22.5 5.9-34.2-2.7-11.7-9.9-21.9-20.2-28.2-10.2-6.4-15.8-18.1-14.5-30 1.4-11.9-2-24-9.5-33.4-7.5-9.4-18.5-15.4-30.4-16.7-12-1.3-22.1-9.4-26.1-20.8-3.9-11.4-12.2-20.7-23-25.9-10.8-5.2-23.3-5.9-34.7-1.8-11.4 4-24 1.1-32.5-7.4C252.5 4.8 241 0 229 0s-23.6 4.8-32 13.4c-8.5 8.5-21.1 11.4-32.5 7.4-11.3-4-23.8-3.4-34.6 1.8s-19.1 14.6-23 25.9C103 59.9 92.8 68 80.8 69.3c-12 1.3-22.9 7.3-30.4 16.7-7.5 9.4-10.9 21.4-9.5 33.4 1.4 12-4.2 23.6-14.5 30-10.2 6.4-17.4 16.5-20.1 28.3-2.7 11.7-.6 24 5.9 34.2 6.4 10.2 6.4 23.1 0 33.3a44.82 44.82 0 00-5.9 34.2c2.7 11.7 9.9 21.9 20.2 28.2 10.2 6.4 15.8 18.1 14.5 30-1.4 11.9 2 24 9.5 33.4 7.5 9.4 18.4 15.4 30.4 16.7 12 1.3 22.1 9.4 26 20.8 3.9 11.4 12.2 20.7 23 25.9 10.8 5.2 23.3 5.9 34.7 1.8 11.3-4 24-1.1 32.5 7.4 8.5 8.6 20 13.4 32 13.4s23.6-4.8 32-13.4c8.5-8.5 21.1-11.4 32.5-7.4 11.3 4 23.8 3.4 34.6-1.9 10.8-5.2 19.1-14.6 23-25.9 3.9-11.4 14.1-19.5 26.1-20.8 12-1.3 22.9-7.3 30.4-16.7 7.5-9.4 10.9-21.4 9.5-33.4-1.4-12 4.2-23.6 14.5-30 10.2-6.3 17.5-16.5 20.2-28.2 2.7-11.7.6-24-5.9-34.2-6.5-10.1-6.5-23.1 0-33.3zm-11.8 40.9c4.5 7 5.9 15.5 4.1 23.6-1.8 8.1-6.8 15.1-13.9 19.5-14.8 9.2-23 26.2-21 43.6 1 8.2-1.4 16.5-6.6 23s-12.7 10.6-21 11.5c-17.4 1.9-32.1 13.6-37.8 30.1-2.7 7.8-8.4 14.3-15.9 17.9-7.5 3.6-16.1 4.1-23.9 1.3-16.5-5.8-34.8-1.6-47.1 10.8-5.8 5.9-13.8 9.2-22.1 9.2s-16.2-3.3-22.1-9.2c-12.3-12.4-30.7-16.6-47.1-10.8-7.8 2.8-16.4 2.3-23.9-1.3s-13.2-10-15.9-17.9c-5.7-16.5-20.4-28.2-37.8-30.1-8.2-.9-15.8-5-21-11.5s-7.5-14.8-6.6-23c2-17.4-6.1-34.3-21-43.6-7-4.4-12.1-11.4-13.9-19.5-1.8-8.1-.4-16.6 4.1-23.6 9.3-14.8 9.3-33.6 0-48.3-4.5-7-5.9-15.5-4.1-23.6 1.8-8.1 6.8-15.1 13.9-19.5 14.8-9.2 23-26.2 21-43.6-1-8.2 1.4-16.5 6.6-23 5.2-6.5 12.7-10.6 21-11.5 17.4-1.9 32.1-13.6 37.8-30.1 2.7-7.8 8.4-14.3 15.9-17.9 7.5-3.6 16.1-4.1 23.9-1.3 16.5 5.8 34.8 1.6 47.1-10.8 5.8-5.9 13.8-9.2 22.1-9.2s16.2 3.3 22.1 9.2c12.3 12.4 30.7 16.6 47.1 10.8 7.8-2.8 16.4-2.3 23.9 1.3 7.5 3.6 13.2 10 15.9 17.9 5.7 16.5 20.4 28.2 37.8 30.1 8.2.9 15.8 5 21 11.5 5.2 6.5 7.5 14.8 6.6 23-2 17.4 6.1 34.3 21 43.6 7 4.4 12.1 11.4 13.9 19.5 1.8 8.1.4 16.6-4.1 23.6-9.4 14.7-9.4 33.5 0 48.3zM229.1 58.3c-94 0-170.2 76.2-170.2 170.2s76.2 170.2 170.2 170.2c94 0 170.2-76.2 170.2-170.2-.1-94-76.2-170.1-170.2-170.2zm0 326.4c-86.3 0-156.2-69.9-156.2-156.2S142.8 72.3 229.1 72.3c86.3 0 156.2 69.9 156.2 156.2-.1 86.2-70 156.1-156.2 156.2z"/></symbol><symbol viewBox="0 0 189.6 189.6" id="safety-box" xmlns="http://www.w3.org/2000/svg"><path d="M171.4 174.5h-23.5c-1.4 0-2.5-1.1-2.5-2.5v-10.9H44.1V172c0 1.4-1.1 2.5-2.5 2.5H18.2c-1.4 0-2.5-1.1-2.5-2.5v-10.9C6.9 160.5 0 153.2 0 144.3V31.8C0 22.6 7.5 15 16.8 15h156.1c9.2 0 16.8 7.5 16.8 16.8v112.5c0 8.9-6.9 16.2-15.7 16.7v11c-.1 1.4-1.2 2.5-2.6 2.5zm-21-5h18.5v-8.4h-18.5v8.4zm-129.7 0h18.5v-8.4H20.7v8.4zm150.7-13.4h1.4c6.5 0 11.8-5.3 11.8-11.8V31.8c0-6.5-5.3-11.8-11.8-11.8h-156C10.3 20.1 5 25.3 5 31.8v112.5c0 6.5 5.3 11.8 11.8 11.8h154.6zm-8.9-9.5H27.1c-6.3 0-11.4-5.1-11.4-11.4V41c0-6.3 5.1-11.4 11.4-11.4h135.4c6.3 0 11.4 5.1 11.4 11.4v94.2c0 6.3-5.1 11.4-11.4 11.4zM27.1 34.6c-3.5 0-6.4 2.9-6.4 6.4v94.2c0 3.5 2.9 6.4 6.4 6.4h135.4c3.5 0 6.4-2.9 6.4-6.4V41c0-3.5-2.9-6.4-6.4-6.4H27.1zm36.4 80.9c-1.4 0-2.5-1.1-2.5-2.5v-3.3c-4.4-.5-8.3-2.3-11.5-5l-2.7 2.7c-1 1-2.6 1-3.5 0-1-1-1-2.6 0-3.5L46 101c-2.2-3-3.7-6.5-4.1-10.4h-3.2c-1.4 0-2.5-1.1-2.5-2.5s1.1-2.5 2.5-2.5h3.2c.5-4.1 2-7.8 4.4-10.8l-2.4-2.4c-1-1-1-2.6 0-3.5 1-1 2.6-1 3.5 0l2.4 2.4c3.1-2.5 7-4.2 11.2-4.7v-3.2c0-1.4 1.1-2.5 2.5-2.5S66 62 66 63.4v3.2c4.4.5 8.4 2.3 11.6 5l2.7-2.7c1-1 2.6-1 3.5 0 1 1 1 2.6 0 3.5L81 75.2c2.2 3 3.7 6.5 4.1 10.4h3.2c1.4 0 2.5 1.1 2.5 2.5s-1.1 2.5-2.5 2.5H85c-.5 4-2 7.6-4.3 10.6l2.7 2.7c1 1 1 2.6 0 3.5-1 1-2.6 1-3.5 0l-2.6-2.6c-3.2 2.6-7.1 4.4-11.4 4.9v3.3c.1 1.3-1.1 2.5-2.4 2.5zm0-44.1c-9.2 0-16.7 7.5-16.7 16.7s7.5 16.7 16.7 16.7 16.7-7.5 16.7-16.7-7.5-16.7-16.7-16.7zm0 27.3c-5.8 0-10.6-4.7-10.6-10.6s4.7-10.6 10.6-10.6S74 82.3 74 88.1s-4.7 10.6-10.5 10.6zm0-16.2c-3.1 0-5.6 2.5-5.6 5.6s2.5 5.6 5.6 5.6c3.1 0 5.6-2.5 5.6-5.6s-2.6-5.6-5.6-5.6zm87.1 14.9h-43.2c-1.4 0-2.5-1.1-2.5-2.5V81.3c0-1.4 1.1-2.5 2.5-2.5h43.2c1.4 0 2.5 1.1 2.5 2.5V95c0 1.3-1.1 2.4-2.5 2.4zm-40.7-5h38.2v-8.7h-38.2v8.7z"/></symbol><symbol viewBox="0 0 53 53" id="search" xmlns="http://www.w3.org/2000/svg"><path d="M51.7 51.3L36.8 35.8C40.6 32 43 26.8 43 21 43 9.4 33.6 0 22 0S1 9.4 1 21s9.4 21 21 21c5.1 0 9.7-1.8 13.4-4.8l14.9 15.5c.2.2.5.3.7.3.3 0 .5-.1.7-.3.4-.4.4-1 0-1.4zM22 40C11.5 40 3 31.5 3 21S11.5 2 22 2s19 8.5 19 19-8.5 19-19 19z"/></symbol><symbol viewBox="0 0 402 402" id="tel" xmlns="http://www.w3.org/2000/svg"><path d="M401.1 311.5c-1.1-3.4-8.4-8.5-21.7-15.1-3.6-2.1-8.8-4.9-15.4-8.6-6.7-3.6-12.7-7-18.1-10-5.4-3-10.5-6-15.3-8.8-.8-.6-3.1-2.2-7.1-5-4-2.8-7.4-4.8-10.1-6.1-2.8-1.3-5.5-2-8.1-2-3.8 0-8.6 2.7-14.3 8.1-5.7 5.4-10.9 11.3-15.7 17.7-4.8 6.4-9.8 12.3-15.1 17.7-5.3 5.4-9.7 8.1-13.1 8.1-1.7 0-3.9-.5-6.4-1.4-2.6-1-4.5-1.8-5.9-2.4-1.3-.7-3.6-2-6.8-4-3.2-2-5-3.1-5.4-3.3-26.1-14.5-48.4-31-67.1-49.7-18.6-18.7-35.2-41-49.7-67.1-.2-.4-1.3-2.2-3.3-5.4-2-3.2-3.3-5.5-4-6.9-.7-1.3-1.5-3.3-2.4-5.9s-1.4-4.7-1.4-6.4c0-3.4 2.7-7.8 8.1-13.1 5.4-5.3 11.3-10.4 17.7-15.1 6.4-4.8 12.3-10 17.7-15.7 5.4-5.7 8.1-10.5 8.1-14.3 0-2.7-.7-5.4-2-8.1-1.3-2.8-3.4-6.1-6.1-10.1-2.8-4-4.4-6.4-5-7.1-2.9-4.8-5.8-9.8-8.8-15.3-3-5.4-6.4-11.5-10-18.1-3.6-6.7-6.5-11.8-8.6-15.4C99 9.2 93.9 2 90.5.9c-1.3-.6-3.3-.9-6-.9-5.1 0-11.8.9-20.1 2.9-8.3 1.9-14.8 3.9-19.6 6-9.5 4-19.6 15.6-30.3 34.8C4.9 61.6 0 79.3 0 96.8c0 5.1.3 10.1 1 15s1.9 10.3 3.6 16.4c1.7 6.1 3.1 10.6 4.1 13.6 1 2.9 3 8.2 5.9 15.8 2.9 7.6 4.6 12.3 5.1 14 6.7 18.7 14.6 35.3 23.7 50 15 24.4 35.5 49.5 61.5 75.5s51.2 46.5 75.5 61.5c14.7 9.1 31.3 17 50 23.7 1.7.6 6.4 2.3 14 5.1 7.6 2.9 12.9 4.8 15.8 5.9 2.9 1 7.5 2.4 13.6 4.1 6.1 1.7 11.6 2.9 16.4 3.6 4.9.7 9.9 1 15 1 17.5 0 35.2-4.9 53.1-14.6 19.2-10.7 30.8-20.7 34.8-30.3 2.1-4.8 4.1-11.3 6-19.6 1.9-8.3 2.9-15 2.9-20.1 0-2.6-.3-4.6-.9-5.9z"/></symbol><symbol viewBox="0 0 24 24" id="telegram" xmlns="http://www.w3.org/2000/svg"><path d="M12.6 17.4c-.9.9-1.8 1.6-2.6 2.5-.3.3-.6.5-1.1.5-.3 0-.4-.1-.6-.4-.7-2-1.3-4.1-1.9-6.1-.1-.2-.2-.3-.3-.4-1.6-.5-3.1-1-4.6-1.5-.3-.1-.5-.1-.7-.3-.3-.2-.3-.6-.1-.8s.6-.4.9-.6c1.9-.8 3.8-1.4 5.7-2.2l14.4-5.6c.9-.3 1.6.2 1.5 1.2 0 .7-.2 1.3-.4 1.8-1 4.9-2.1 9.8-3.1 14.7-.3 1.1-1 1.5-2 .8-1.6-1.2-3.2-2.4-4.8-3.5-.2 0-.2-.1-.3-.1zM9 18.9c.1 0 .1-.1.1-.1.1-1.1.2-2.2.3-3.4 0-.3.1-.4.3-.6 1.5-1.3 2.9-2.6 4.4-4 1.6-1.4 3.3-2.9 4.9-4.4 0-.1.1-.3.2-.3-.2-.1-.3-.2-.5-.1s-.4.2-.5.3C14.6 8.5 11 10.8 7.4 13c-.2.1-.3.3-.2.4.3.8.5 1.6.8 2.4.3 1 .6 2 1 3.1z"/></symbol><symbol id="viber" viewBox="0 0 40 40" xml:space="preserve" xmlns="http://www.w3.org/2000/svg"><style>.lst1{fill:#665cac}</style><defs><path id="lSVGID_1_" d="M0 0h40v40H0z"/></defs><clipPath id="lSVGID_2_"><use xlink:href="#lSVGID_1_" overflow="visible"/></clipPath><g clip-path="url(#lSVGID_2_)"><path class="lst1" d="M35.6 3.9C34.5 3 30.4.1 21.2 0c0 0-10.9-.6-16.2 4.1C2 7 1 11.2.9 16.4.8 21.6.6 31.3 10.3 34v4s-.1 1.6 1 2c1.3.4 2.1-.8 3.4-2.2.7-.7 1.7-1.8 2.4-2.6 6.6.5 11.7-.7 12.3-.9 1.3-.4 8.9-1.4 10.1-11.1 1.4-10.1-.5-16.4-3.9-19.3zm1.1 18.5c-1 8.1-7.2 8.6-8.3 9-.5.1-5 1.2-10.6.9 0 0-4.2 4.9-5.5 6.2-.2.2-.4.3-.6.2-.2-.1-.3-.3-.3-.7v-6.7c-8.2-2.2-7.7-10.5-7.6-14.8s1-7.9 3.5-10.3C11.7 2.3 21 2.9 21 2.9c7.8 0 11.6 2.3 12.4 3.1 2.9 2.3 4.4 8 3.3 16.4z"/><path class="lst1" d="M25 16.6c-.3 0-.5-.2-.5-.5-.1-1.7-.9-2.6-2.6-2.6-.3 0-.5-.2-.5-.5s.3-.5.6-.5c2.3.1 3.5 1.4 3.6 3.6-.1.3-.3.5-.6.5z"/><path class="lst1" d="M27.6 17.5c-.3 0-.5-.2-.5-.5 0-1.7-.5-3.1-1.6-4.3-1.1-1.2-2.6-1.8-4.6-1.9-.3 0-.5-.3-.5-.5 0-.3.3-.5.6-.5 2.2.1 4 .9 5.3 2.2 1.3 1.3 1.9 3 1.8 5 .1.3-.2.5-.5.5z"/><path class="lst1" d="M30.4 18.6c-.3 0-.5-.2-.5-.5 0-3.1-1-5.5-2.8-7.2-1.8-1.7-4.2-2.6-6.9-2.7-.3 0-.5-.2-.5-.5s.2-.5.5-.5c3 0 5.6 1 7.7 2.9C30 12 31 14.7 31 18c-.1.3-.3.5-.6.6zM22 22.9s.7.1 1.1-.4l.8-.9c.4-.5 1.3-.8 2.1-.3.5.3 1.4.8 1.9 1.2.6.4 1.8 1.4 1.8 1.4.6.5.7 1.1.3 1.9-.4.7-1 1.4-1.6 1.9-.6.4-1.1.7-1.6.8h-.2c-.2 0-.5 0-.7-.1-.8-.2-2.2-.8-4.5-2-1.3-.7-2.6-1.5-3.8-2.4-.6-.4-1.1-.9-1.7-1.5l-.1-.1-.1-.1-.1-.1-.1-.1c-.5-.5-1-1.1-1.5-1.6-.9-1.1-1.8-2.4-2.5-3.6-1.3-2.2-1.8-3.5-2.1-4.3-.1-.2-.1-.4-.1-.7v-.2c.1-.5.3-1 .8-1.6.6-.6 1.2-1.2 2-1.6.7-.4 1.4-.2 1.9.3 0 0 1 1.2 1.4 1.7.4.5.9 1.4 1.2 1.9.5.9.2 1.7-.3 2.1l-1 .7c-.5.4-.4 1.1-.4 1.1s1.7 5.3 7.1 6.6z"/></g></symbol><symbol viewBox="0 0 40 40" id="whatsapp" xmlns="http://www.w3.org/2000/svg"><path d="M20.4 38.9c-3.5 0-6.6-.8-9.5-2.4L0 40l3.5-10.5C1.7 26.6.7 23.1.7 19.4.7 8.6 9.5 0 20.4 0 31.2 0 40 8.6 40 19.5c0 10.8-8.8 19.4-19.6 19.4zm0-35.8c-9 0-16.5 7.3-16.5 16.3C3.9 23 5.1 26.2 7 29l-2 6.1 6.4-2c2.6 1.7 5.8 2.8 9 2.8 9.2 0 16.5-7.3 16.5-16.3S29.5 3.1 20.4 3.1zm10 20.8c-.1-.2-.5-.4-1-.6-.5-.2-2.9-1.4-3.3-1.6-.5-.1-.8-.1-1.1.4-.4.5-1.2 1.6-1.6 1.9-.2.4-.6.4-1.1.1s-2-.7-3.9-2.4c-1.4-1.3-2.4-2.8-2.6-3.2-.2-.5 0-.7.2-1 .2-.2.5-.6.7-.8.2-.2.4-.5.5-.8.1-.4.1-.6 0-.8-.1-.2-1.1-2.6-1.4-3.5-.4-1-.8-.8-1.1-.8h-1c-.4 0-.8.1-1.3.6-.5.4-1.7 1.6-1.7 3.8 0 2.4 1.7 4.6 1.9 4.9s3.4 5.3 8.2 7.2c4.9 1.9 4.9 1.3 5.8 1.2.8-.1 2.9-1.2 3.3-2.3.6-1.1.6-2.1.5-2.3z"/></symbol></svg>